<?xml version="1.0" encoding="utf-8"?>
<!-- Generator: Adobe Illustrator 19.1.1, SVG Export Plug-In . SVG Version: 6.00 Build 0)  -->
<svg version="1.1" id="Lager_1" xmlns="http://www.w3.org/2000/svg" xmlns:xlink="http://www.w3.org/1999/xlink" x="0px" y="0px"
	 viewBox="0 0 400 671" style="enable-background:new 0 0 400 671;" xml:space="preserve">
<style type="text/css">
	.st0{fill:#FF8000;}
</style>
<g>
	<path d="M113.6,480.9c4.2-4.4,7.7-9.2,9.2-15.3c0.6-2.2,1-4-2.2-4.9c-1.4-0.4-3.1-2.9-3-4.4c0.1-1.4,2.3-2.7,3.7-3.9
		c0.7-0.6,2-0.6,2.4-1.3c1.4-2.6,3.3-4.5,5.8-2.3c1.2,1.1,0.7,4.1,1,6.5c7.2-3.1,12-8.6,10.6-18.4c0.6,0.1,1.1,0.3,1.7,0.4
		c0.4,2.3,0.9,4.6,1.3,6.9c0.3,0,0.5,0.1,0.8,0.1c0.3-2.8,0.6-5.7,0.9-8.5c0.4,0,0.8-0.1,1.2-0.1c0.4,1.4,0.7,2.8,1.1,4.5
		c1.2,0,2.6,0,4.3,0c-0.3-2.3-0.5-4.5-0.7-6.8c-0.2-2.6-0.8-5.3-0.5-7.9c0.1-1.2,2.2-3.3,3-3.1c1.4,0.3,3.2,1.8,3.6,3.2
		c0.8,3,0.7,6.2,2.2,9.6c0.6-1.2,1.3-2.3,1.9-3.5c1.1-2.1,1.7-5.2,3.4-6c1.4-0.6,4.1,1.5,5.7,2.2c2.1-1.9,4.3-5.3,6.8-5.6
		c1.9-0.3,4.3,3.5,5.6,4.6c1.3-1.6,3-5.8,5.3-6.1c2.2-0.3,5,3.3,7.5,5.2c0.8-2.6-0.2-8.7,5.9-8.6c2.7,0,5.3,3,8.2,4.7
		c1.6-3,4.5-6.2,9.8-4.3c0.3,0.1,1-0.3,1.3-0.6c3.8-4.3,7.9-3.5,11.9-0.4c5.7-5.6,6.9-5.7,13.6-1.4c0.3,0.2,0.6,0.6,0.8,0.6
		c7.3-1.5,10.4,4.5,13.6,7.5c3.4-1.2,6.1-2.2,8.7-3.1c0,2.1,0,4.2,0,7.2c3.7,2.3,5.4,6.4,4.4,11.8c-0.2,1.3,1.4,2.9,2.1,4.3
		c0.5-0.2,1.1-0.4,1.6-0.6c-0.2-2.1-1.1-4.4-0.5-6.2c0.7-2.3,2.2-4.8,4.1-6.3c1.1-0.8,5.5,4.7,5.5,6.5c0.1,2.8,0,5.7,4.3,5.8
		c7.1,0.2,9.2,2.7,9.3,10.4c0,1.5,0.3,3.1,0.4,4.6c0.6,0.1,1.2,0.2,1.8,0.4c1.4-3.7,2.7-7.5,4.3-11.8c3.6,6.6-0.2,14.8,4.4,20.7
		c0.5-0.1,1.1-0.2,1.6-0.3c-0.3-2.3-0.7-4.6-0.8-7c-0.1-2.1-0.6-5.6,0.3-6.1c2.2-1.2,5.2-1.4,7.8-1.1c2.3,0.3,4.5,1.7,6.8,2.6
		c1.1-2.2,2-4,2.9-5.8c0.5,0.2,1,0.3,1.5,0.5c-0.3,1.2-0.4,2.5-0.8,3.7c-0.9,3.3-2.6,6.4,1.5,9.1c1,0.6,0.5,3.6,0.6,5.4
		c0.1,1.4,0,2.9,0,4.3c0.6,0,1.1,0.1,1.7,0.1c0.2-1.3,0.5-2.7,0.5-4c0.3-7.7,1.3-9.4,10.3-7.2c3.3-9.1-1.4-19.7,5.7-28.3
		c0.1,0.7,0.2,1.3,0.2,2c0,0.6-0.3,1.2-0.5,2.3c3.7-0.4,7.3-1,8.1,4.2c0.6-0.2,1.2-0.4,1.8-0.6c0-2.9,0-5.8,0-8.8
		c0-3,1.1-6.3-2.7-8.2c-0.8-0.4-1.2-3.8-0.7-4.2c4.7-3.2,4.3-8.1,5-12.7c0.1-0.7,0.6-1.4,1.2-2.5c1.5,5.6,2.9,10.7,4.3,15.9
		c0.6,0,1.1,0.1,1.7,0.1c2-3.6,8.7-1.1,8.9-8.5c-3.1,3.9-6.7,8.2-9.8,2.6c-3.4-6.1,4.1-6.6,6.7-9.6c-1.8-6.6-1.5-7.3,4.5-7.3
		c-0.2-0.7-0.7-1.5-0.5-1.8c2.9-3.7,0.5-8.2,1.7-12c0.5-1.5,2-2.7,3-4c1.1,1.2,2.6,2.2,3.2,3.5c2.6,6.7,2.5,6.7-2.6,10.2
		c7.2,5.3,2.7,12,2.2,18.5c1.7,0.9,3.5,1.9,5.3,2.9c0,1,0,2,0,3c-4.1,4.5-4.5,10.2-4,15.6c0.6,6.3,1,7.2-4.2,12
		c1,4.8,2.1,9.9,3.1,14.9c0.2,0.8,0.4,1.8,0.1,2.5c-2.2,4.4-1.3,8.1,1.1,12.4c1.1,1.9-1.4,5.7-2,8.7c-0.5,2.4-0.7,4.8-1.1,7.3
		c-0.2,1.5-0.2,3-0.5,4.4c-0.8,4.3-1.1,8.8-2.6,12.9c-1.9,5-4.5,9.8-7.5,14.2c-1.9,2.8-4.2,4.3-1.9,8.4c1.3,2.4,0.7,6.6-0.5,9.4
		c-2.4,5.7-5.6,11-8.7,16.3c-1,1.8-2.8,3.2-4.3,4.7c-1,1.1-2.1,2.3-3,3.5c-1.2,1.5-2,3.7-3.6,4.6c-6.7,3.9-9.7,10.1-11.2,17.3
		c-0.4,1.7-0.9,3.7-2.1,5c-7,8.1-14,16-24.2,20.5c-2.3,1-2.8,6.1-4,9.4c-0.9,2.4-1.1,5.1-2.5,7c-0.6,0.8-3.4-0.1-5.8-0.3
		c-1,0.8-2.9,1.7-3.9,3.3c-1.2,2-1.5,4.6-2.2,6.8c-0.7,2-1.2,4.2-2.4,5.7c-0.4,0.5-4-0.2-4.2-1c-0.6-1.9-0.1-4.1,0-6.2
		c0-0.4,0.4-0.9,1-2c-5,2-10.1,2.5-10.9,9.1c-0.3,2.6-2,5.4-3.7,7.5c-5.7,7.2-13.9,5-17.6-4.5c-9.7,14.5-16.5,15.7-27.1,3.7
		c-4.1,3.2-8.3,6.4-12.3,9.7c-3.5,2.8-7.2,2.4-10.8,0.7c-2.3-1.1-3.8-1.4-6.3-0.1c-4.2,2.3-8.5,0.3-11.9-4.5
		c-0.8-1.2-1.5-3.2-2.6-3.5c-3.1-0.8-7.1-2.3-9.5-1.1c-10.5,5.1-16.9-2.1-24.8-6.6c-1.6,2.7-4,5.7-8.6,4.3c-5.2-1.6-4.9-6-4.7-10.5
		c-11.3-0.4-5.8-12.4-10.7-16.3c-3.1,2.5-6,6.5-8.1,6.1c-2.9-0.6-5.1-4.5-8.3-7.7c-4.9,1.4-9.4-1.8-12.8-6.7
		c-3.1-4.5-5.8-9.3-8.3-14.2c-1.5-2.9-3.3-4.5-6.6-5.9c-5.8-2.4-13.2-3.5-15.4-11.2c-0.2-0.7-1.1-1.3-1.8-1.6
		c-9.7-4.4-14.4-13-18.1-22.3c-1.1-2.7-2.2-4.4-5.3-5.1c-4.5-1-6.1-4.3-5.4-8.7c0.3-1.9,1-3.8,1.3-5.2c-2.9-0.8-6.4-0.7-8.1-2.4
		c-1.8-1.8-2.4-5.3-2.3-8.1c0.1-2.9,1.5-5.7,2.4-9c-1.5,0.2-3,0.6-4.5,0.5c-5.3-0.1-8.7-6.1-6.4-11.5c1.6-3.8,3.7-7.4,5.5-11.1
		c-4.1-4.6-7.9-9.1-5.6-15.8c0.2-0.6-0.1-1.5-0.4-2.2c-2.4-4.7-2.5-4.7,0-9.2c-4.6-2.8-3.7-6.5-2-10.8c1.3-3.1,1.6-6.6,2.2-9.9
		c0.1-0.6,0-1.6-0.3-1.8c-8.3-6.1-0.7-13-2.8-21.8c-3.4-4.6-1.3-11.1,6.7-14.5c2.3-1,4-3.3,6-5c2.4-2.2,4.8-4.5,7.2-6.8
		c0.4,0.4,0.8,0.8,1.2,1.2c-3.3,3.8-6.6,7.6-10,11.4c0.9,1.5,1.7,2.7,2.7,4.2c2-0.9,4-1.8,5.9-2.6c0.2,0.4,0.5,0.9,0.7,1.3
		c-1.8,1.2-3.9,2.2-5.3,3.8c-0.9,1-1.6,3.8-1.1,4.2c4.7,4.2,4.2,8.6,1.1,13.4c-0.3,0.5-0.3,1.1,0.5,2.7c2.6-1.9,5.1-4,7.9-5.7
		c1.2-0.7,2.9-0.6,4.3-0.9c0.2,1.3,0.7,2.7,0.6,4c-0.4,3.7-1,7.3-1.5,11c0.6,0.2,1.1,0.4,1.7,0.6c2.5-4.2,5.1-8.3,7.8-12.8
		c1,2.4,2.1,3.9,2.4,5.7c0.2,1.2-0.1,2.9-0.8,4c-1.3,1.9-3.2,3.4-4.6,5.3c-3.1,4.5-1.3,8.3,1.9,12c2.2-2.9,4.1-5.9,6.6-8.3
		c1.3-1.4,3.6-1.9,5.4-2.7c0.5,1.9,1,3.8,1.5,5.6c0.1,0.4,0.2,0.9,0.4,2c1.2-1.4,2-2.9,3.2-3.5c1.9-1,4.4-2.5,5.9-1.9
		c2.4,1,4.2,3,3.4,6.7c-1,4.2-2.9,8.8,1.2,13.4c0.1-1.8,0.2-3,0.2-4.2c0.1-2.5-0.3-5.6,3.3-5.5c3.7,0.1,2.9,3.4,3,5.8
		c0.1,5.7,0,11.3,0,17.5c2.6,0.3,5.5,5.4,8.6-0.6c-5-1.3-8.3-4.9-6.7-7.5c0.9-1.5,3.6-1.8,6-2.9c-0.5-1.9-1.6-5.6,3.1-6.5
		c3.3-0.6,6.6-0.3,6.6,4.4c0,0,0.1-0.1,0.1-0.1c-6.3,4.3-0.1,8.2,1.6,13.2C109,486.3,111.3,483.6,113.6,480.9L113.6,480.9z
		 M227.4,549.5c-1.2,2.3-2.7,5-4.3,7.9c1.4,1.4,2.9,2.8,4.2,4c5.1-8.1,10.1-16.2,15.3-24.1c0.8-1.2,2.7-1.7,4.1-2.5
		c-0.2,1.6,0.1,3.4-0.6,4.6c-4.5,7.8-9.2,15.4-13.8,23.1c-0.2,0.4-0.1,0.9-0.2,1.6c1.3,0.6,2.6,1.1,4,1.7c0.9-1.8,1.7-3.3,2.4-4.8
		c3.3-6.5,6.5-13.1,9.9-19.6c0.6-1.1,2.1-1.6,3.1-2.4c0.1,1.4,0.5,3,0.1,4.2c-0.8,2.3-2.3,4.4-3.3,6.7c-3.7,9-11.1,16.7-9.8,27.6
		c0.1,0.8-0.5,1.6-0.6,2.4c-0.4,3.1-0.7,6.3-1,9.4c-0.2,1.9,0.2,3.9-0.3,5.6c-1.7,6.5-3.7,12.9-5.5,19.4c0.7,0.3,1.3,0.6,2,0.9
		c4.2-4.2,5-10.4,8-15.6c-3.6-1.9-3.7-4-2-7.2c5.4-9.9,10.6-20,15.9-30c2.4-4.4,4.9-8.7,7.6-12.9c0.5-0.7,1.9-0.8,2.9-1.2
		c0.3,1.1,1.1,2.5,0.7,3.3c-1.5,3.1-3.4,6.1-5.1,9.1c-0.4,0.8-1,2.5-0.8,2.6c4.1,2,0.6,4.2,0.1,6.2c-0.6,2.6-1.7,5-2.6,7.5
		c4.6-8.4,8.2-17.1,12-25.7c0.6-1.3,2.4-2.1,3.7-3.1c0.2,1.6,0.8,3.3,0.4,4.7c-2.1,5.9-4.5,11.7-6.8,17.5c0.5,0.3,1,0.6,1.5,0.9
		c4.4-6.2,8.9-12.4,13.2-18.7c1.8-2.7,2.7-6.4,5.1-8.2c2.1-1.6,5.7-1.1,9-1.6c-0.3-0.7-0.3-2.1-1-2.6c-5.2-4.1-6.3-7.1-4.2-13.9
		c0.5-1.5,2.5-2.4,3.9-3.6c1.1,1.4,2.4,2.8,3.2,4.3c0.4,0.8-0.2,2,0,2.9c0.1,0.6,1,1.6,1.5,1.6c0.8,0,2.1-0.7,2.2-1.2
		c0.6-4.7,2.7-10.2,1-14c-2.4-5.5-2-10.1-0.9-15.3c1.9-9,0.8-11.2-9.1-11.8c0.4,0.4,0.9,0.7,1.1,1.1c0.7,1.7,1.8,3.5,1.6,5.1
		c-0.1,1-3,2.6-3.7,2.3c-1.6-0.9-3.1-2.7-3.7-4.4c-1.1-3.3-1.5-6.8-2.3-10.2c-0.3-1.2-0.8-3.1-1.7-3.4c-6.8-2.4-13.6-5.7-20.6-6.3
		c-4.8-0.4-10,2.7-14.8,4.8c-4.2,1.9-8,2.5-11.5-0.8c-1.6-1.6-2.7-3.7-4.3-6c-3.4,1.6-7,4.7-10.1,4.4c-6.4-0.7-12.7-1.3-19.2-0.3
		c-2.1,0.3-4.3,0.4-6.5,0.7c-1.6,0.2-3.8,1.3-4.8,0.6c-4.4-3.3-8.5-0.3-12.3,0.8c-4,1.2-7.5,4.2-11.5,5.9c-2.7,1.1-6.3,2.4-8.7,1.5
		c-3.8-1.5-6.8-4.9-10.3-7.6c0.1,1.8,0.2,4.6,0.3,7.4c0,2,0.4,4.1-0.3,5.8c-0.3,0.7-3.7,1.2-4.2,0.6c-1.3-1.6-2-3.8-2.5-5.9
		c-0.4-1.3-0.1-2.7-0.1-4.1c-0.8,0.1-1.6,0.2-2.4,0.2c0.5,4.6,1,9.2,1.4,13.8c0.1,1.8,0.3,3.8-0.4,5.3c-2.5,5.7-5.3,11.3-8.3,17.7
		c2.2,0.8,4.6,1.5,6.9,2.6c1.7,0.8,3.6,1.8,4.7,3.3c1.9,2.4,2.9,5.5,5,7.7c2.8,3,2.6,5.7,0.9,9c-0.7,1.3-0.6,4.5,0,4.7
		c2.5,1,6.4,2.7,7.9,1.6c4.4-3.3,10.1-5.9,10.8-12.5c0.1-0.6,0.8-1.2,1.3-1.9c4,3.9,3.7,7.5,0.1,11.1c-0.7,0.7-1.1,2-1.3,3.1
		c-0.9,4.2-1.1,8.6-2.6,12.5c-1.6,4-0.3,6.7,2.2,10c6.1-8.6,11.9-16.8,17.7-24.9c0.6,0.4,1.2,0.8,1.8,1.2
		c-6.7,10.5-13.4,21-20.1,31.5c1.3,1.6,2.5,3,3.7,4.5c0.5-0.7,0.8-1.1,1.1-1.5c9.8-14.6,19.5-29.3,29.4-43.9
		c0.5-0.7,1.8-0.9,2.7-1.4c0.1,1,0.7,2.2,0.3,3c-0.9,2.1-2.1,4.1-3.2,6.2c-2.4,4.7-4.9,9.5-7.3,14.2c0.4,0.3,0.8,0.6,1.2,0.8
		c6.1-4.4,12.2-8.8,18.3-13.2c2.5-1.8,5-2.4,7.7,0C223,547.3,224.8,548,227.4,549.5z M257.6,609.6c-1.7,2-2.8,4.2-4.5,5.2
		c-2.5,1.5-5.5,2.3-8.3,3.4c-0.9-2.5-1.9-4.9-2.8-7.4c-0.2-0.5-0.2-1-0.2-1.5c-0.6,0.1-1.2,0.2-1.8,0.3c0.4,4.2,0.8,8.4,1.2,12.8
		c1.1,0.4,2.4,0.6,3.5,1.3c4.1,2.6,6.1,2.1,8.8-2c1.3-2,3.3-3.6,5.1-5.3c1.5-1.6,3-3.1,4.9-5C260.9,610.7,259.4,610.2,257.6,609.6z
		 M328.7,479.1c-6-1.7-8.4-4-6.1-9.1c0.7-1.6,0.7-4.1,0.1-5.8c-0.5-1.4-2.4-2.5-3.9-3.2c-0.5-0.3-2.4,0.9-2.6,1.7
		c-0.3,1.3-0.2,3.4,0.6,4c4.8,3.6,3.2,6.8,0.4,9.2c0.9,4,1.7,7.2,2.5,10.7C322.5,484.3,325.1,482.1,328.7,479.1z M182.1,614.5
		c3.4-7.5,6.8-14.8,10.2-22.2c-3.2-1.7-5.1-1.2-6.4,2c-1.5,3.7-3.2,7.3-5.1,10.8C178.9,608.4,178.2,611.5,182.1,614.5z M212.4,599.3
		c-6.4,5.6-7.8,15.2-2.7,19.2c2.2-5.5,4.3-11,6.5-16.6C214.7,600.9,213.6,600.1,212.4,599.3z M34,458.1c1.9-0.5,3.7-1.4,5.2-1.1
		c3.1,0.4,5-1,4.3-3.6c-0.7-2.7,1.3-7.7-4.4-7.8C37.4,449.9,35.8,453.9,34,458.1z M256,583.8c-4.2,8.9-9.4,17.4-8.4,27.9
		c2.1-2.3,4.1-4.9,4.8-7.7c0.7-3.3-0.2-7,0.4-10.4C253.3,590.2,254.8,587.1,256,583.8z M187.7,612.4c2.2,0.6,3.7,0.9,5.5,1.4
		c1.1-5.4,5.4-10.2,1-16.2C192,602.6,190,607.2,187.7,612.4z M174.1,584.5c0.8,0.5,1.6,1,2.3,1.4c5.5-8.6,8.9-18.4,13.9-27.3
		c-0.4-0.2-0.8-0.5-1.2-0.7C184.2,566.8,179.2,575.6,174.1,584.5z M215.6,615.1c0.3,0.4,0.6,0.8,0.9,1.2c1.4-0.7,3.7-1.1,4.1-2.2
		c1.5-4.4,2.5-9.1,3.9-14.4C217.3,603.4,218.3,610.2,215.6,615.1z M312.2,507.6c4.2-5.5,4.2-8.6,0.4-14.7c-2,1.5-3.9,3-7.3,5.6
		C313,498.4,314.3,501.6,312.2,507.6z M233.9,592.2c-4,1.3-8.5,15.6-7.4,23.2C229,607.6,231.4,600,233.9,592.2z M195.8,618
		c6.4-3.2,6.7-7.9,7.7-13.9C197.8,607.7,198.4,612.8,195.8,618z M281.9,583.3c3.2,0,6.5,0.5,6.7-0.1c0.9-2.4,3.4-5.5-1-7.8
		C286,577.6,284.5,579.7,281.9,583.3z M287.2,601.5c-0.7-0.2-1.4-0.5-2.2-0.7c-1.5,5-3,9.9-4.5,14.9c0.5,0.2,1,0.4,1.6,0.6
		C283.9,611.4,285.5,606.4,287.2,601.5z M179.5,590.3c5.8-0.8,6.2-1.9,4-8.9C182.1,584.4,180.9,587.1,179.5,590.3z M365.6,457.6
		c1.6-3.5,3.2-7,4.7-10.5C367.2,449.9,363.5,452.5,365.6,457.6z M165.1,585.1c-4.7,3.2-1,6.3-1.2,9.5c0.6,0,1.1-0.1,1.7-0.1
		C165.4,591.4,165.3,588.2,165.1,585.1z M243.7,638.5c0.6-0.1,1.3-0.1,1.9-0.2c-0.2-3.2-0.3-6.3-0.5-9.5c-0.7,0-1.5,0.1-2.2,0.1
		C243.1,632.1,243.4,635.3,243.7,638.5z"/>
	<path d="M392,215c-3.2,3.8-6.7,5.5-10.9,0.4c0,2.2,0,3.7,0,5.1c5.9,1.9,8,5.1,8.1,11.6c0,1.4,1.3,3.1,0.9,4.2
		c-0.8,2-2.1,4.1-3.8,5.3c-0.9,0.6-3.8,0.1-4.3-0.8c-0.9-1.4-0.6-3.5-0.8-5.3c-0.1-0.6,0.1-1.2,0.1-1.8c-0.5-0.2-0.9-0.4-1.4-0.6
		c-1.4,3-2.9,6-4.4,9c-0.4,0.8-1,1.6-1.5,2.4c-0.6-1-2-2.3-1.8-2.8c1.2-2.5,2.7-4.9,4.3-7.3c2.8-4.1,2.3-6.7-1.8-9.4
		c-3.4-2.3-2.2-5.5-0.7-7.9c4.1-6.5,2.8-13.9,3.9-20.8c0.1-0.4-0.4-0.8-0.6-1.2c-4.8,4.1-5.1,6.2-1.8,9.8c-3.2,1.7-5.3,0.8-4.8-2.4
		c0.4-2.7,1.3-5.9,3.2-7.6c5.3-4.9,7.2-9.8,1.8-16.8c-1.7,3.6-3.4,7.1-5.3,11.1c-2.2-0.1-3.2-1.4-1.3-4.6c2.6-4.3,5.7-8.2,8.7-12.4
		c-0.7-2.2-1.5-4.7-2.6-8.3c-1.9,3.8-3.6,7-5.8,11.4c-0.4-1.7-1.3-3.4-0.9-4.4c2.1-4.6,4.5-9.1,7.1-13.5c0.5-0.8,2-0.9,2.9-1.6
		c1.3-1.1,2.4-2.3,3.2-4c-10,1.5-9.6-6.7-12.3-12.6c-2.4,6.1-4.4,11.5-6.5,16.9c-0.5-0.2-1-0.3-1.5-0.5c-0.6-5.2,3.6-9.3,4-12.4
		c-2.2-5-3.8-8.4-5.2-12c-1.4-3.6-2.6-6.8-7.2-7.9c-5.2-1.2-7-4.8-6.5-10.3c0.2-1.8,0.6-3.6,0.8-4.4c-2-2.5-3.6-4.5-5.2-6.5
		c0-0.1,0.1-0.2,0.1-0.4c-1.2-2.1-2.5-4.3-3.7-6.4c2-0.9,4-1.7,6.6-2.9c-3.7-0.9-7.4-1.7-11.5-2.7c-2.4,4.9-4.6,5-8.8,0.2
		c-1.2-1.4-3.2-2.3-5-2.8c-0.5-0.1-1.9,1.9-2.4,3.2c-0.2,0.7,0.8,1.8,1,2.7c0.6,2.9,0.3,5.6-3.1,6.3c-3.1,0.5-4.4-1.4-4.7-4.4
		c-0.1-0.8-1.4-2.2-2.1-2.2c-1.4,0.1-2.9,0.8-3.9,1.8c-1.1,1.1-1.4,3.4-2.6,4c-2.1,1-4.7,1.1-7.1,1.6c-0.2-2.2-0.4-4.5-0.7-7.7
		c-3.5,0.7-8.4,0.7-12.6,2.5c-9.1,3.9-17.8,2.2-26.9,0.5c-11.7-2.2-23.6-4.1-35.5-5.5c-9.1-1.1-18.3-0.5-27.1,2.6
		c-13.8,4.9-27.7,9.3-41.4,14.4c-3,1.1-5.2,4.2-7.9,6.3c-0.8,0.6-1.9,0.9-2.8,1.3c-0.3-1-1.2-2.4-0.9-2.9c2-2.7,3.9-6.1,6.7-7.5
		c7.3-3.8,15.1-6.8,22.7-10.1c1.5-0.6,3-1,4.4-2c-18,2.2-35.9,4.5-51.5,13.8c0,1.9,0,3.5,0,5.1c-1.5-0.1-3.1-0.3-4.6-0.4
		c-2.5,0-5.4-0.8-7.3,0.3c-4.7,2.6-10.9,3.6-12.2,10.4c-0.1,0.7-3.2,1.7-4.1,1.2c-1.4-0.8-3.3-3.1-2.9-4.2c1.2-4.2-2.2-5.8-4.3-6
		c-1.6-0.1-4.3,2.9-5.1,5c-2.5,7-3.4,7.8-11.2,8.7c-2.9,0.3-5.7,1.3-8.6,2c0,0.6-0.1,1.1-0.1,1.7c1.4,0.5,3,0.8,4.2,1.6
		c0.9,0.6,2.1,2.4,1.8,3c-0.5,1.1-2,2.3-3.2,2.3c-2.8,0-5.7-0.6-8.5-0.9c-0.4,0-0.8,0.1-1.2,0.2c-1.3,0.6-2.9,2.1-3.9,1.8
		c-2.5-0.8-5-2.1-6.8-3.9c-2.4-2.4-0.5-5.3,5.4-7.8c-0.6-5.8-1.2-11.9-1.7-18.1c-0.1-1.5-0.2-3.2,0.4-4.4c4.1-8.2,5-17.1,6-26
		c0.3-2.4,1-5.1,2.5-7c6.9-8.5,14-16.9,21.3-25c1.5-1.7,4.2-3.2,6.5-3.4c5.8-0.3,10.3-3.3,15.1-5.9c18.1-9.9,37.5-16.2,58-19.2
		c20.1-2.9,40.2-5.4,60.3-8.1c1,0,2,0,3,0c1,0.2,1.9,0.6,2.9,0.6c22.8-0.2,43.8,6.8,64.3,16c6.4,2.8,12.4,6.4,18.6,9.6
		c1.6,0.8,3.2,1.8,4.9,2.5c7.5,2.8,15.1,5.2,22.4,8.3c2.1,0.9,3.8,3.2,5.4,5.2c4.2,5.4,5.5,12.6,11.7,16.8c4.3,2.9,8.3,6.6,7.3,13.1
		c-0.2,1.6,0.8,4.4,4.4,3.9c1.7-0.2,4.5,1.6,5.6,3.2c2.6,3.8,4.5,8,6.6,12.1c1.7,3.2,1.4,5.8-3.1,6.3c2.9,7.2,5.6,13.9,8.3,20.7
		c4.9-1.2,6.8-0.3,7.2,4.5c0.5,6.6,0.2,13.3,0.3,19.9c0.1,3.2-0.3,6-5.8,5.5c2.7,3.5,4.3,5.9,6.3,8.1c2.4,2.6,3.2,5,0.2,7.7
		c-0.7,0.6-1.1,1.6-1.7,2.4c-1.9,2.6-2.7,4.5,1.5,5.8c3.5,1.1,3.9,4.5,1.4,7.1c-2.8,2.9-3.1,6.9-0.3,9.4c2.1,2,2.8,3.8,1.3,6.5
		c-1.8,3.2-1.2,6,2.3,7.7C392,213,392,214,392,215z M186.4,66.2c-0.7,0.3-1.6,1-2,0.8c-5.1-3-8.9,0.7-14.1,2
		C175.9,70.8,183,69.3,186.4,66.2c3.9-1.2,7.8-2.4,11.6-3.6c-0.4-0.9-0.8-1.7-1.2-2.6C193.3,62.1,189.8,64.2,186.4,66.2z M287,84.3
		c-4.2-1-8.4-2.4-12.7-2.7c-4.9-0.4-10,0-15,0.4c-10.7,0.9-21.4,2.1-32.1,3.1c9.7,2.5,19.6,3.2,29,5.6C267.5,93.7,277,90.2,287,84.3
		z M170.6,87.2c0.1,0.5,0.2,1.1,0.2,1.6c28.9-4.2,57.8-8.5,86.7-12.7C227.4,71.7,198.9,79,170.6,87.2z M375.9,133.3
		c-1.9-5.1-3.8-10.2-5.6-15.2c-6.5,2.3-9.9,0.7-12.2-5.3c-0.5-1.2-0.8-3-1.7-3.5c-1.1-0.5-3.5-0.3-4,0.4c-1.4,2.3-1.4,4.5,1.7,6
		c2,1,3.8,2.7,5,4.5c3.2,4.7,6.1,9.7,8.8,14C370.9,134,373,133.7,375.9,133.3z M132.3,92.3c0.1-0.6,0.1-1.2,0.2-1.8
		c-1.9-0.2-4.2-1.1-5.7-0.3c-8.4,4-16.6,8.4-24.8,12.7c-1,0.5-2.4,1.2-2.7,2c-0.9,3-1.3,6.1-5.7,5c-0.2,0.9-0.4,1.8-0.7,3.3
		C106.6,105.9,119.5,99.1,132.3,92.3z M226.1,20.1c-12,0-23,0-34.7,0c0.9,2.1,1.5,3.4,2.4,5.7c4.2-6.5,8.8-3.6,13.9-2.5
		C213.6,24.6,220.1,25.9,226.1,20.1z M135,65.7c-11.3,2.2-20.7,7.9-30.1,14.5c1.8,0.7,3.9,1.1,5.3,0.4c7.7-4.2,15.2-8.7,22.8-13.1
		C133.7,66.9,134.3,66.2,135,65.7z M138.2,89.4c11.2-4,22.3-8,33.6-12C165,75,144.1,82.4,138.2,89.4z M256.6,58
		c6.4,3.5,19.7,2.8,21.6-1.3C271,57.1,264.2,57.5,256.6,58z M330.3,84.3c-2.1-5.1-11.7-7.6-17.3-4.3C319,81.5,324.4,82.8,330.3,84.3
		z M99.2,82.5c-2.5,3.1-4.8,5.9-7.1,8.7c0.2,0.2,0.4,0.5,0.7,0.7c3.7-2.1,7.3-4.1,11.3-6.4C102.4,84.5,101.1,83.7,99.2,82.5z"/>
	<path class="st0" d="M118.1,263.1c22.3,1.6,44.8,4.5,66.3,12.6c2.9,1.1,6.9,0.4,10.2-0.5c11.4-3,22.5-3.7,33.6,1.6
		c1.7,0.8,4.4,0.5,6.4,0c17-5,33.9-10.8,51.1-14.9c9.6-2.3,19.8-1.6,29.8-2.4c3.5-0.3,6.9-1.4,10.3-1.2c9.7,0.7,19.4,1.8,29.1,2.9
		c4.9,0.6,9.8,1.4,14.7,2.2c4.7,0.8,9.4,1.5,14,2.6c4.2,1.1,6.1,4.6,6,8.6c-0.1,3.6-0.6,7.1-5.1,8.6c-4.4,1.4-5.8,5.3-5.8,9.6
		c0,6.7,0.6,13.3,0.1,20c-0.8,11.9,0.3,24.1-4.9,35.3c-5.9,12.6-13.5,22.9-29.5,23.9c-16,1.1-31.9,4.8-47.9,5.6
		c-13.1,0.7-26.6,0.6-39-5.6c-9.2-4.6-15.9-11-18.9-21.1c-3.3-11.1-7.3-22-10.9-33.1c-2.2-7-7.6-12.4-13.6-13
		c-8.8-1-17.4,3.1-21.2,10.2c-6.3,12-12.2,24.3-18.8,36.2c-3.1,5.6-6.9,11.1-11.4,15.7c-3.1,3.2-7.6,5.6-11.8,6.7
		c-14,3.6-28,7.9-42.3,9.4c-21.3,2.3-42.7,1.7-62.2-9.1c-8-4.5-12.5-11.6-13.9-20.7c-2.3-15.4-4.3-30.9-7.4-46.2
		c-0.7-3.4-5-6.6-8.4-8.9c-4.5-3.1-6.4-14.1-2.1-17.1c1.5-1,3.7-1,5.5-1.5c5.6-1.4,11.2-2.7,16.7-4.1c11-2.9,21.9-7,33.1-8.5
		C85.7,264.6,101.7,264.2,118.1,263.1z M113.2,274.7c-4.9,0.3-9.7,0.5-14.5,1c-14.7,1.5-29.4,2.7-43.6,7.4
		C44,286.8,35,299.8,35.8,309c1.1,12.8,3.2,25.6,4.8,38.4c2,15.9,11.3,21.1,25,21.8c12.7,0.7,25.5,0.2,38.3,0
		c8.1-0.1,16.2,0,24.2-1.1c13.5-1.9,24.9-8.5,33-19.5c11.5-15.6,18.1-33.5,22.2-52.3c0.8-3.7,0-7.6-3.5-9.1
		c-9.4-3.9-18.9-8.6-28.8-10.3C138.5,274.8,125.7,275.3,113.2,274.7z M328.9,272.1c0-0.3,0-0.7-0.1-1c-12.6,0.8-25.2,1.6-37.8,2.6
		c-15,1.2-29.5,4.5-43.4,10.6c-8.8,3.8-13.7,12.1-12,21c1.1,5.9,1.7,12,3.8,17.5c4,10.8,8.9,21.4,13.5,32c3.5,7.9,10.1,12,18.2,13.2
		c8.5,1.2,17.2,1.9,25.7,1.6c14.3-0.5,28.5-2,42.7-3.2c11.5-1,21.5-9.2,24.7-19.5c5.1-16.3,5.8-33.1,5.6-49.8
		c-0.3-17.6-8.3-24.6-26-24.8C338.9,272,333.9,272.1,328.9,272.1z"/>
	<path d="M27.6,173.1c-1.6-1.3-3-2.5-4.4-3.7c1.6-1.1,3.1-3.1,4.8-3.3c7-1,11.8,3.2,11.7,10c0,1.5-1.7,3-2.9,5
		c1,0.8,2.2,1.7,3.6,2.7c-0.6,1.1-1.2,2.2-1.9,3.6c1.5,1.1,3,2.2,4.4,3.3c-0.1,0.3-0.2,0.7-0.3,1c-2.4-0.3-4.8-0.5-7.2-0.8
		c0,0.5,0,1,0,1.6c1.7,0.2,3.5,0.3,5.2,0.5c0.1,0.4,0.1,0.7,0.2,1.1c-1.9,0.5-3.9,0.9-7.2,1.7c0.7,2.4,1.5,4.8,2,7.3
		c0.3,1.5,0.6,3.5,0,4.7c-1.6,3-3.8,5.6-5.8,8.4c5.1,3.9,5.1,5.1,1,10.1c0.7,2.2,1,4.8,2.3,6.5c3,3.9,1.5,5.6-2.4,6.6
		c-3.7,0.9-3.6,3.5-1.7,5.5c1.9,2.1,4.6,3.5,7,5c1,0.6,2.3,0.8,3.5,1.2c-0.1,0.4-0.1,0.9-0.2,1.3c-1.6,0.2-3.3,0.4-5.3,0.7
		c0.4,1.5,0.8,2.9,1.2,4.3c1.2,3.9-0.2,5.9-4.3,6.4c-1.5,0.2-3,1.1-4.5,1.3c-1.3,0.2-2.6,0-4,0c0.1-1.2-0.2-2.8,0.5-3.6
		c2.7-3,3.7-5.1-1.4-6.3c-0.7-0.2-1.4-2.9-1.1-4.3c0.1-0.8,2.1-1.6,3.4-1.8c1.6-0.2,3.2,0.4,5.3,0.7c-1.5-2.7-2.8-5-3.6-6.2
		c-2.6-0.9-4.3-1.5-6-2.1c1-1.5,2.2-2.9,3-4.4c0.8-1.5,1.9-3.2,2-4.8c0.1-3.1-0.5-6.2-0.9-9.3c-0.3-2-1.2-4-1.5-6
		c-0.4-2.7-0.5-5.5-0.7-8.2c-0.2-2.2,0-4.7-1-6.5c-2.7-4.6,1.3-8.4,0.9-12.6c-0.1-1.3-0.5-2.5-0.6-3.8c-0.1-2-0.9-4.6,0-6
		C22.6,177.3,25.5,175.1,27.6,173.1z M23.9,186.7c3.4,5.2,6.5,4,9.5,2.5c0.1-0.6,0.1-1.2,0.2-1.8C30.7,187.3,27.8,187,23.9,186.7z"
		/>
	<path d="M44.6,167.3c-4.2-1.6-8.2-2.4-11.3-4.5c-2.2-1.5-3.6-4.7-4.6-7.4c-0.2-0.6,3.2-3.8,4.4-3.5c3.1,0.7,6.8,2.1,8.5,4.4
		C43.6,158.9,43.6,162.9,44.6,167.3z"/>
	<path d="M53.7,153.3c-3.7-0.6-6.8-0.9-9.8-1.6c-1.8-0.4-3.6-0.8-5.1-1.7c-1.4-0.9-2.9-2.4-3.1-3.8c-0.2-1.2,1.3-3.3,2.5-3.7
		c1.4-0.5,3.7-0.1,4.9,0.8C46.4,146,49.5,149.3,53.7,153.3z"/>
	<path d="M31.3,403.3c-2.9,2.9-4.7,4.7-6.6,6.5c-1.5-1.7-4.5-3.6-4.2-4.9c0.5-2.2,2.7-4.4,4.7-5.8C25.8,398.7,28.3,401.2,31.3,403.3
		z"/>
	<path d="M120.7,467.1c-2.4,2.6-3.8,4.1-5.3,5.7c-1.6-2.3-3.7-4.4-4.5-6.9c-0.3-1.1,2.5-3,3.8-4.5
		C116.4,463,118.1,464.6,120.7,467.1z"/>
	<path d="M30.6,390.3c-3.6,2.2-5.8,4.1-8.3,4.7c-1.1,0.3-2.8-2.3-4.2-3.6c2.2-1.9,4.1-4.2,6.6-5.4C25.5,385.6,27.7,388.1,30.6,390.3
		z"/>
	<path d="M113.6,480.9C113.6,480.9,113.6,480.9,113.6,480.9c-3.8-0.1-8.7,1.7-8.6-5l-0.1,0.1c2.3-1.1,4.6-2.5,7-3
		c0.4-0.1,1.8,3.2,2.4,5.1C114.6,478.8,113.9,479.9,113.6,480.9z"/>
	<path d="M19.2,369.9c2.1,2.7,4.4,4.4,4.3,5.9c-0.1,1.6-2.8,4.5-3.9,4.3c-1.9-0.3-4.2-2.5-4.7-4.3C14.6,374.6,17.1,372.6,19.2,369.9
		z"/>
	<path d="M382,377.8c-1.8-1-4.1-1.6-5.4-3c-1-1.1-0.8-3.3-1.2-4.9c1.6,0.1,3.9-0.5,4.8,0.4c1.7,1.7,2.5,4.2,3.7,6.4
		C383.2,377,382.6,377.4,382,377.8z"/>
	<path d="M33.2,216.5c3.2-3.5,5.7-6.3,8.3-9c0.5,0.4,0.9,0.7,1.4,1.1c-1.7,3.1-3.5,6.2-5.6,10C37,218.4,35.6,217.7,33.2,216.5z"/>
	<path d="M25.3,271.2c1.1-1.7,2.2-3.5,3.3-5.2c0.8,0.9,2.5,2.2,2.3,2.6c-0.8,1.6-2.1,3-3.3,4.5C26.9,272.5,26.1,271.8,25.3,271.2z"
		/>
	<path d="M246.8,573.1c-1.9,2.6-3.5,4.8-5.1,6.9c-0.7-0.7-2-1.8-1.9-2.2c1.1-2.4,2.6-4.6,4-6.9C244.6,571.5,245.4,572.1,246.8,573.1
		z"/>
</g>
</svg>
