<?xml version="1.0" encoding="utf-8"?>
<!-- Generator: Adobe Illustrator 19.1.1, SVG Export Plug-In . SVG Version: 6.00 Build 0)  -->
<svg version="1.1" id="Lager_1" xmlns="http://www.w3.org/2000/svg" xmlns:xlink="http://www.w3.org/1999/xlink" x="0px" y="0px"
	 viewBox="0 0 960 400" style="enable-background:new 0 0 960 400;" xml:space="preserve">
<style type="text/css">
	.st0{fill:#FF8000;}
</style>
<circle cx="0.3" cy="6" r="2"/>
<circle cx="40.3" cy="6" r="2"/>
<circle cx="80.3" cy="6" r="2"/>
<circle class="st0" cx="120.3" cy="6" r="2"/>
<circle cx="160.3" cy="6" r="2"/>
<circle cx="200.3" cy="6" r="2"/>
<circle cx="240.3" cy="6" r="2"/>
<circle cx="280.3" cy="6" r="2"/>
<circle cx="320.3" cy="6" r="2"/>
<circle cx="360.3" cy="6" r="2"/>
<circle cx="640.3" cy="6" r="2"/>
<circle cx="680.3" cy="6" r="2"/>
<circle cx="720.3" cy="6" r="2"/>
<circle cx="760.3" cy="6" r="2"/>
<circle cx="840.3" cy="6" r="2"/>
<circle cx="880.3" cy="6" r="2"/>
<circle cx="920.3" cy="6" r="2"/>
<circle cx="960.3" cy="6" r="2"/>
<circle cx="0.3" cy="46" r="2"/>
<circle class="st0" cx="40.3" cy="46" r="2"/>
<circle cx="80.3" cy="46" r="2"/>
<circle cx="160.3" cy="46" r="2"/>
<circle class="st0" cx="280.3" cy="46" r="2"/>
<circle cx="680.3" cy="46" r="2"/>
<circle class="st0" cx="720.3" cy="46" r="2"/>
<circle cx="760.3" cy="46" r="2"/>
<circle cx="800.3" cy="46" r="2"/>
<circle cx="920.3" cy="46" r="2"/>
<circle cx="960.3" cy="46" r="2"/>
<circle cx="0.3" cy="86" r="2"/>
<circle cx="40.3" cy="86" r="2"/>
<circle cx="80.3" cy="86" r="2"/>
<circle cx="760.3" cy="86" r="2"/>
<circle cx="800.3" cy="86" r="2"/>
<circle class="st0" cx="920.3" cy="86" r="2"/>
<circle cx="960.3" cy="86" r="2"/>
<circle cx="0.3" cy="126" r="2"/>
<circle cx="40.3" cy="126" r="2"/>
<circle cx="80.3" cy="126" r="2"/>
<circle cx="120.3" cy="126" r="2"/>
<circle cx="160.3" cy="126" r="2"/>
<circle cx="840.3" cy="126" r="2"/>
<circle cx="880.3" cy="126" r="2"/>
<circle cx="920.3" cy="126" r="2"/>
<circle cx="960.3" cy="126" r="2"/>
<circle cx="0.3" cy="166" r="2"/>
<circle cx="40.3" cy="166" r="2"/>
<circle cx="80.3" cy="166" r="2"/>
<circle class="st0" cx="120.3" cy="166" r="2"/>
<circle cx="840.3" cy="166" r="2"/>
<circle cx="880.3" cy="166" r="2"/>
<circle cx="920.3" cy="166" r="2"/>
<circle cx="960.3" cy="166" r="2"/>
<circle cx="0.3" cy="206" r="2"/>
<circle cx="40.3" cy="206" r="2"/>
<circle class="st0" cx="80.3" cy="206" r="2"/>
<circle cx="120.3" cy="206" r="2"/>
<circle cx="840.3" cy="206" r="2"/>
<circle cx="880.3" cy="206" r="2"/>
<circle class="st0" cx="920.3" cy="206" r="2"/>
<circle cx="960.3" cy="206" r="2"/>
<circle cx="0.3" cy="246" r="2"/>
<circle cx="40.3" cy="246" r="2"/>
<circle cx="80.3" cy="246" r="2"/>
<circle cx="120.3" cy="246" r="2"/>
<circle cx="840.3" cy="246" r="2"/>
<circle cx="880.3" cy="246" r="2"/>
<circle class="st0" cx="920.3" cy="246" r="2"/>
<circle cx="960.3" cy="246" r="2"/>
<circle cx="0.3" cy="286" r="2"/>
<circle class="st0" cx="40.3" cy="286" r="2"/>
<circle cx="80.3" cy="286" r="2"/>
<circle cx="120.3" cy="286" r="2"/>
<circle cx="160.3" cy="286" r="2"/>
<circle cx="200.3" cy="286" r="2"/>
<circle cx="240.3" cy="286" r="2"/>
<circle class="st0" cx="760.3" cy="286" r="2"/>
<circle cx="800.3" cy="286" r="2"/>
<circle cx="840.3" cy="286" r="2"/>
<circle cx="880.3" cy="286" r="2"/>
<circle cx="920.3" cy="286" r="2"/>
<circle cx="960.3" cy="286" r="2"/>
<circle cx="0.3" cy="326" r="2"/>
<circle cx="40.3" cy="326" r="2"/>
<circle cx="160.3" cy="326" r="2"/>
<circle cx="200.3" cy="326" r="2"/>
<circle class="st0" cx="240.3" cy="326" r="2"/>
<circle cx="280.3" cy="326" r="2"/>
<circle cx="320.3" cy="326" r="2"/>
<circle cx="720.3" cy="326" r="2"/>
<circle cx="760.3" cy="326" r="2"/>
<circle cx="800.3" cy="326" r="2"/>
<circle cx="840.3" cy="326" r="2"/>
<circle cx="960.3" cy="326" r="2"/>
<circle cx="0.3" cy="366" r="2"/>
<circle cx="40.3" cy="366" r="2"/>
<circle cx="80.3" cy="366" r="2"/>
<circle cx="120.3" cy="366" r="2"/>
<circle cx="160.3" cy="366" r="2"/>
<circle cx="200.3" cy="366" r="2"/>
<circle cx="240.3" cy="366" r="2"/>
<circle cx="280.3" cy="366" r="2"/>
<circle cx="320.3" cy="366" r="2"/>
<circle cx="360.3" cy="366" r="2"/>
<circle cx="680.3" cy="366" r="2"/>
<circle cx="720.3" cy="366" r="2"/>
<circle cx="760.3" cy="366" r="2"/>
<circle cx="800.3" cy="366" r="2"/>
<circle cx="840.3" cy="366" r="2"/>
<circle cx="880.3" cy="366" r="2"/>
<circle cx="920.3" cy="366" r="2"/>
<circle cx="960.3" cy="366" r="2"/>
</svg>
