<?xml version="1.0" encoding="utf-8"?>
<!-- Generator: Adobe Illustrator 19.1.1, SVG Export Plug-In . SVG Version: 6.00 Build 0)  -->
<svg version="1.1" id="Lager_1" xmlns="http://www.w3.org/2000/svg" xmlns:xlink="http://www.w3.org/1999/xlink" x="0px" y="0px"
	 viewBox="0 0 600 500" style="enable-background:new 0 0 600 500;" xml:space="preserve">
<style type="text/css">
	.st0{fill:#FF8000;}
	.st1{fill:#FFFFFF;}
</style>
<path d="M567.3,219.2c-0.6,4.4-1,8.7-1.9,13.1c-2.4,12.7-4.8,25.4-7.5,38.1c-5.7,26.7-15,52-29.6,75.1c-4.8,7.5-12,13.5-18.4,19.8
	c-5.7,5.7-11.9,10.8-17.3,16.9c-6,6.9-14.2,12.1-21.7,17.6c-15.8,11.7-32.1,22.5-49.8,31.2c-18.8,9.2-38.5,16.4-59.3,19
	c-19.4,2.4-38.7,6.8-58.5,5.9c-6.7-0.3-13.5-0.4-20.2,0c-10.6,0.6-21.1,2.2-31.6,2.5c-6.7,0.2-13.4-1-20.1-2.1
	c-4.9-0.8-9.8-2.1-14.6-3.5c-1.3-0.4-2.6-1.6-3.4-2.8c-2-2.7-8.4-5.3-11.4-3.7c-4.9,2.5-9.8,5.1-14.2,8.4
	c-12.2,9.2-26.3,13.8-40.6,17.8c-14.2,4-28.7,6.9-43.1,10.3c-2,0.5-4.1,0.7-6.1,1.1c-3.1,0-6.2,0-9.3,0c-8.1-2.5-16.2-4.9-24.2-7.6
	c-3.3-1.1-6.4-2.9-10.1-4.7c5.2-2.5,9.5-3.8,13-6.3c8.5-6,16.5-12.8,24.9-18.9c10.5-7.6,19.3-16.7,25.9-27.9
	c2.8-4.6,5.8-9.1,8.8-13.6c4.5-6.9,0-15.9-8-17.5c-3.5-0.7-7.6-3.2-9.6-6.1c-6.1-8.7-11.7-17.5-21.1-23.5
	c-17.8-11.4-28.5-28.9-35.6-48c-6.5-17.6-10.4-36.2-15.1-54.4c-1.4-5.4-1.9-11-2.9-16.5c0-10.6,0-21.1,0-31.7c0.3-0.5,0.7-1,0.9-1.5
	c2.6-13,4.6-26.1,7.7-38.9c4.5-18.3,13.2-34.7,23.8-50.1c1.2-1.7,2.9-3.2,4.4-4.6c3.5-3.1,7.6-5.7,10.4-9.4
	C88.2,94,98.3,88.8,103,78.7c0.5-1.1,2.1-1.8,3.3-2.4c10.2-5.5,20.2-11.5,30.7-16.2c17.1-7.6,34.4-14.5,51.8-21.4
	c28.1-11.1,57.7-16,87.5-19.8c3.5-0.5,7.1-1.2,10.6-1.8c3.1,0,6.2,0,9.3,0c4.2,0.3,8.4,0.9,12.6,1c17.6,0.4,35.1,0.5,52.7,1.1
	c5.8,0.2,11.7,0.9,17.3,2.4c8.1,2.2,15.8,5.8,23.8,8.2c10.6,3.2,21.2,6.2,30.6,12.3c2.5,1.6,5.5,3,8.4,3.7c20.7,4.9,39,15.7,58.2,24
	c12.2,5.3,20.9,14.7,29.7,24.5c16.8,18.9,26.6,41.1,33,65.1c1.9,7.2,3.1,14.5,4.7,21.8C567.3,193.7,567.3,206.5,567.3,219.2z
	 M67.5,471.4c0,0.4-0.1,0.7-0.1,1.1c4.2,0,8.6,0.7,12.7-0.1c17.8-3.5,35.7-6.7,53.2-11.4c15.2-4.1,30.1-9.5,42.8-19.2
	c3.5-2.7,6.7-6,10.4-8.4c4.2-2.8,8.7-5.2,13.3-7.3c4.5-2,17.2,4.1,19.4,9.5c0.4,0.9,1.3,2,2.2,2.2c4.9,1.2,9.9,2.1,14.8,3
	c7.1,1.4,15-0.4,20.9,5.8c0.4,0.4,1.4,0.3,2.1,0.3c12.7-0.1,25.4-0.3,38.1-0.4c0.6,0,1.2,0.2,1.8,0.3c4.4,0.4,8.8,1.4,13.1,1
	c8.9-0.9,17.8-2.6,26.7-4.1c10.7-1.7,21.5-3,32.1-5.3c22.6-4.8,44.2-12.8,63.3-25.7c20.6-13.9,43.2-24.9,58.8-46.1
	c17.2-23.4,33.5-46.9,42.8-74.6c5.8-17.1,10.7-34.4,12.2-52.5c1-11.9,3-23.8,3.4-35.7c0.3-9.3-0.8-18.8-1.8-28.1
	c-0.8-7.1-1.6-14.5-4-21.1c-3.9-10.7-8.8-21.1-13.7-31.4c-5.8-12.3-13.3-23.7-23.4-32.9c-9-8.1-18-16-30-20.5
	c-22.1-8.2-43.5-18-65.3-27.1c-12.9-5.4-26.6-8.2-40.4-9.5c-20.2-2-40.4-3.6-60.7-4.6c-7.7-0.4-15.6,1-23.3,1.7
	C276.7,31.3,264.8,32,253,34c-16.5,2.8-33,6-49.2,10.3c-13.3,3.5-26.1,9.2-39.2,13.4c-19.9,6.4-37.7,16.8-55.6,27.1
	c-9,5.2-15.5,13.5-22.4,21.3c-8.4,9.5-19,17-22.2,30.3c-1.4,5.8-4.7,11.2-6.7,16.9c-2.6,7.3-5.2,14.7-7.3,22.2
	c-5.2,18.4-9.1,37-8.5,56.3c0.2,9-1,18.2,0.4,27c2,12.8,5.3,25.5,8.8,38c3.2,11.6,9.4,21.8,15.9,31.9c5.9,9.1,12.7,17.1,21.6,23.5
	c5.8,4.2,12,8.5,15.9,14.2c8,11.9,18.8,20.2,31.1,26.6c4.2,2.2,3.7,3.8,1.9,6.7c7.7,8.1,7.3,12.9-1.3,20.3c-1.2,1-2.1,2.3-3,3.5
	c-11.8,15.6-25.2,29.6-42.9,38.5C82.8,465.5,75.1,468.3,67.5,471.4z"/>
<path d="M433.8,118.7c-9,12.1-14.8,25.9-14.7,41.7c0,2.6-0.4,5.2-0.8,7.8c-0.9,5.4,5.3,15.2,10.5,16.3c0.7,0.1,1.6-0.7,2.4-0.8
	c1.1-0.1,2.9-0.2,3.1,0.2c0.4,1.1,0.7,2.9,0.1,3.7c-1.9,2.5-4.6,3.7-7.7,2.3c-11.1-4.7-16.5-9.7-14.9-23.5
	c0.8-7.1,1.1-14.4,2.9-21.3c3-11.4,7.4-22.3,15.9-31c0.4-0.4,0.8-1.1,1.3-1.2c1.9-0.5,3.9-0.8,5.9-1.1c0.3,1.8,1.2,3.9,0.5,5.2
	C437.9,118,435.4,118.1,433.8,118.7z"/>
<path class="st0" d="M171.5,209.5c1.8,8.8-1.8,17.6-1.2,26.5c9.1-1.1,10.7-3,10.9-11.2c0.1-4.9,0.5-9.8,1-14.7
	c0.1-1.2,1.6-2.2,2.4-3.4c0.5,1.2,1.3,2.3,1.3,3.5c-0.2,10.5-0.6,21-0.8,31.5c0,2.2,0.7,4.5,0.9,6.8c0.1,1-0.4,2.1-0.7,3.2
	c-1-0.5-2.5-0.7-2.9-1.4c-0.7-1.4-1.1-3.2-1.2-4.8c-0.2-3.1-0.1-6.1-0.1-10.6c-4.4,2.4-7.9,4.3-12.3,6.7c-0.2,5.1-0.3,10.8-0.7,16.5
	c-0.1,0.9-1.2,1.8-1.9,2.6c-0.9-1.4-2.6-2.8-2.6-4.2c0.1-3.3,1.3-6.6,1.6-9.9c0.8-8.1,1.2-16.2,1.9-24.3c0.4-4.3,1.3-8.5,2-12.8
	C170,209.4,170.7,209.4,171.5,209.5z"/>
<path class="st0" d="M339.5,240.4c0-2.4-0.4-5,0.1-7.3c0.4-1.8,2.1-3.4,3.2-5c0.8,1.6,2.1,3.1,2.3,4.7c0.3,3-0.2,6.1-0.3,10.3
	c1.8-0.7,4.2-0.9,5.1-2.2c4.6-6.3,8-13.1,5.9-21.4c-0.3-1,0.8-2.3,1.2-3.5c1.1,0.6,2.8,1,3.1,1.9c3.3,10.3-0.2,23.2-9.1,28.6
	c-0.5,0.3-1,1-1.5,1c-4-0.1-8.4,0.7-11.9-0.7c-2.6-1-4.6-4.6-6.2-7.5c-1.7-3.1-2.8-6.5-3.7-9.9c-0.3-1.2,0.5-2.6,0.8-4
	c1.3,0.6,3.4,0.9,3.9,2c1.8,3.5,3.1,7.3,4.6,11c0.3,0.8,0.9,1.4,1.4,2.1C338.7,240.5,339.1,240.4,339.5,240.4z"/>
<path d="M152.9,294.4c0.7-1.4,1.4-3.9,2.1-3.9c1.8,0,3.9,0.7,5.2,1.9c5.9,5.3,7.6,12.7,9.3,19.9c3.6,15.6-1.8,29.2-10.3,41.8
	c-1.6,2.4-4.7,4.1-7.4,5.5c-0.6,0.3-3.6-1.9-3.5-2.6c0.5-2.3,2.4-6.3,2.7-6.2c3.5,1,4.2-1.7,5.4-3.6c9.5-14.6,11.4-30,4.2-46
	c-1.3-2.8-4.1-4.9-6.2-7.3C153.9,294.1,153.4,294.3,152.9,294.4z"/>
<path class="st0" d="M452.5,251.7c2.2,0,3.6-0.3,4.6,0.1c8.8,3.5,13.5,0.9,13.9-8.6c0.4-7.2-0.2-14.3-4.5-20.8
	c-5.2,4.9-3.9,11.2-4.8,16.9c-0.4,2.3,0.1,4.7-0.2,7c-0.1,0.9-1.4,1.6-2.2,2.4c-0.6-0.6-1.7-1.2-1.7-1.7c0.3-8.2-1-16.8,4-24.2
	c2.6-3.9,5.6-4.4,7.8-0.3c2.8,5.2,4.8,11,6,16.7c0.8,3.9,0.4,8.5-0.9,12.3C471.4,260.4,459.8,259.9,452.5,251.7z"/>
<path class="st0" d="M204.1,238.1c5,1.2,9.7-3,15,0.6c-4.8,4.1-10.2,1.5-14.8,2.7c-1.1,5.2-0.3,6.5,4.6,6.1c3.2-0.2,7.6,2.2,9.3-3.1
	c1,0.5,2,0.9,3.1,1.4c-1,1.8-1.5,4.4-2.9,5.1c-4.6,2.1-9.6,2.1-14.3-0.1c-2.9-1.3-5.1-8.3-4.5-13.2c0.6-4.8,0.4-9.9,1.8-14.4
	c1.6-5.5,7.2-6.2,12-7.2c3.7-0.8,7.1,0.3,9.3,3.6c0.3,0.5,0.2,1.7-0.1,2c-0.6,0.5-1.9,1-2.4,0.7c-4.4-3-8.9-2.1-12.4,0.7
	C203.1,226.8,202.9,232.3,204.1,238.1z"/>
<path d="M393.4,136.9c-3.6,2.1-6.6,3.8-10.2,5.9c9.5,4,12.1,11.1,12.9,19.7c0.9,9.2-1.8,16.6-9.1,22.3c-5,3.9-11.8,2.3-14.1-3.5
	c-0.5-1.4,0.3-3.3,0.5-4.9c0.5,0,1,0,1.5,0c0.5,0.6,1,1.1,1.4,1.7c3.4,6,5.9,6.3,10.6,1.2c6.5-6.9,6.9-20.1,2.7-27.1
	c-1.2-2-3.6-3.6-5.8-4.7c-4.2-2-4.9-4.1-2-7.7C384.3,136.7,389.6,135.1,393.4,136.9z"/>
<path d="M204,137.8c-2,3.5-3.8,7.1-6,10.5c-1.3,2-1.8,6-5.3,4.7c-1.2-0.5-1.6-4.3-1.6-6.6c0-4.1,0.4-8.3,0.9-12.4
	c0.2-1.1,1.5-2.1,2.3-3.2c0.7,1,1.9,2,2.1,3c0.3,2.3,0.1,4.6,0.1,7.5c2-2.3,3.6-4.4,5.4-6.2c2.8-2.8,6.9-2.1,8.6,1.6
	c1,2.2,1.4,4.6,1.8,7c0.4,2.4,0.8,4.8,0.8,7.2c0,1.3-0.9,2.6-1.4,4c-1.3-0.7-3.3-1.1-3.6-2.1c-0.9-2.2-1-4.7-1.3-7.1
	c-0.3-2.5-0.5-4.9-0.7-7.4C205.4,138.1,204.7,138,204,137.8z"/>
<path d="M341.8,154.4c0.9,1.2,2.9,3.4,2.7,3.6c-1.5,1.6-3.3,3.3-5.3,4.1c-0.7,0.3-3-1.5-3.3-2.8c-0.6-2.3-0.7-4.9-0.4-7.3
	c1.1-11.1,2.4-22.1,3.9-33.1c0.2-1.4,2.3-2.6,3.5-3.9c0.6,1.9,1.8,3.8,1.6,5.6c-1.2,11.3-2.7,22.6-4.1,33.9
	C340.8,154.4,341.3,154.4,341.8,154.4z"/>
<path d="M364.4,142.6c-3.5-2.6-8.3-2.1-11.4,0.7c-2.9,2.5-1.9,4.7,0.1,6.9c-0.7,1.1-1.7,1.9-1.9,2.8c-0.3,2-0.9,4.7,0.1,5.8
	c1.1,1.2,4.5,2.1,5.7,1.3c3.6-2.5,7.1-5.5,9.9-9C369.6,147.8,367.3,144.8,364.4,142.6z M363.5,149.5c-1.5,1.9-3.5,3.6-5.5,5
	c-0.7,0.4-2.6,0-3.2-0.7c-0.5-0.6-0.2-2.1,0-3.2c0.1-0.5,0.6-1,1-1.6c-1.1-1.2-1.7-2.5-0.1-3.9c1.8-1.5,4.4-1.8,6.4-0.4
	C363.7,145.9,365,147.6,363.5,149.5z"/>
<path d="M164.9,145.1c1.1-3,2.5-7.5,4.5-11.7c0.7-1.5,3.6-3.3,4.8-2.9c2.9,1,6.6,2.6,7.8,5.1c3.3,6.5-0.9,14.9-7.8,17.4
	C169.2,154.8,165,152,164.9,145.1z M169,149.4c7-1.5,9-4.1,8.8-8.8c-2.2-1.4-3.8-2.5-6.2-4C170.8,140.7,170,144.6,169,149.4z"/>
<path d="M265.4,147.8c1.9-14.1,3.7-28.2,5.8-42.2c0.2-1.3,2-2.4,3.1-3.6c0.2,1.5,0.7,3,0.4,4.4c-3.3,14.4-5.2,29-4.4,43.8
	c0.2,3.4,0,7.5,3.6,10c0.6,0.4,0.1,2.3,0.1,3.5c-1.4-0.2-3.7,0.1-4.1-0.6c-1.5-2.5-2.7-5.4-3.3-8.3c-0.5-2.2-0.1-4.6-0.1-7
	C266.1,147.9,265.8,147.9,265.4,147.8z"/>
<path d="M153.6,131.3c-1.1,1.6-1.7,3.2-2.8,3.8c-4.4,2.2-9,10.5-8.1,15.3c1,5.2,7.3,7.6,11.8,4.5c1.3-0.9,3-1.3,4.6-1.7
	c0.2-0.1,1.3,1.8,1.1,2c-1.2,1.3-2.5,3.3-4,3.5c-3.9,0.7-8.1,1.2-12,0.8c-4.5-0.5-8.2-6.4-6.9-11.7c1.1-4.6,3.4-9,5.8-13.1
	C144.9,131.5,148.2,129.9,153.6,131.3z"/>
<path class="st0" d="M438.1,215.4c0,0.7,0.3,1.6,0,2.1c-4.5,6.3-2.8,13.4-2.1,20.1c0.3,3.3,3.9,6.3,6.3,9.2c0.3,0.4,2-0.3,3.1-0.4
	c0.9-0.1,1.9-0.3,2.8-0.4c-0.2,1.1,0,2.4-0.6,3.3c-1.6,2.4-3.8,2.7-6.4,1.3c-6.7-3.3-11.2-12.6-9.8-20.1c0.6-3.1,0.5-6.5,1.4-9.5
	c0.7-2.3,2.4-4.2,3.7-6.3C437,214.9,437.6,215.1,438.1,215.4z"/>
<path class="st0" d="M255.6,237.7c0.8-3.5,2.1-9.4,3.7-15.3c0.2-0.8,1.8-1.3,2.8-1.9c0.2,1,0.8,2.1,0.6,3.1
	c-0.9,5.3-2.3,10.5-3,15.8c-0.2,1.5,0.8,4,2,4.7c1.9,1.1,4.5,1.1,6.8,1.3c1.3,0.1,2.7-0.3,4-0.4c-0.9,1.6-1.3,3.9-2.7,4.6
	C263.1,253,255.6,248.1,255.6,237.7z"/>
<path d="M284.7,137.7c-0.2,3-0.4,5-0.6,7.8c1.5-2.8,2.4-4.9,3.7-6.7c0.6-0.8,2-1,3.1-1.5c0.5,1.2,1.6,2.5,1.4,3.6
	c-0.4,2-1.2,4.1-2.4,5.8c-3.6,5.2-1.5,11,4.9,12.9c1.3,0.4,2.2,1.8,3.3,2.7c-1.5,0.3-3,1.1-4.4,0.9c-4.2-0.6-6.5-3.3-7.8-7.3
	c-0.9-2.9-2.5-5.7-4-8.4C279.6,143.9,280.2,141,284.7,137.7z"/>
<path d="M227.5,141.8c7.9,3.4,10.9,12.1,6.7,17.6c-1.1,1.5-3.5,1.9-5.3,2.9c-0.5-1.7-1.5-3.5-1.3-5c0.4-2.4,1.9-4.3,5-2.6
	c0.9-4.8-1.2-7.4-5.3-9.1c-1.4-0.6-3.1-1.8-3.5-3c-0.3-0.9,1.2-2.8,2.3-3.6c3.9-2.5,7.9-4.9,13.5-1.8
	C235.9,138.6,232.1,140,227.5,141.8z"/>
<path class="st0" d="M501.7,208.1c0,4.6,0.4,9.1-0.1,13.6c-0.6,5.7-1.7,11.4-3,17.1c-0.3,1.2-2.4,2-3.7,3c0-1.5-0.1-3.1,0.1-4.6
	c0.9-6.6,1.9-13.3,2.7-19.9c0.4-3.3-0.3-6.8,1.8-9.6C500.3,207.9,501,208,501.7,208.1z"/>
<path d="M252.5,138.6c3.2,2.6,6.1,5.6,4.1,9.4c-1.2,2.3-4.3,4.2-6.9,4.8c-3.5,0.8-5.1-1.8-4.2-5.4c0.5-2.1,3-4.3-0.3-6.4
	c-0.3-0.2-0.3-1.7-0.1-1.7c4.6-1.5,2.4-7.7,6.3-9.6C254.5,132.3,254.5,132.3,252.5,138.6z M251.4,142.9c-0.8,0.1-1.5,0.3-2.3,0.4
	c0,2.2,0,4.5,0,6.7c1.3-0.6,3.7-1.1,3.7-1.7C252.8,146.5,251.9,144.7,251.4,142.9z"/>
<path class="st0" d="M240.9,220.4c-0.8,7.8-1.6,15.1-2.5,23.4c2.1-0.4,3.3-0.7,4.4-0.8c1.1,0,2.3,0.2,3.4,0.4
	c-0.5,1.3-0.7,3.1-1.6,3.7c-2.9,1.9-9.5-0.6-9.2-3.8c0.7-7.4,2.3-14.6,3.7-21.9C239.2,221.1,239.9,220.9,240.9,220.4z"/>
<path d="M196.8,352.3c-3.3,6.4-6,12-9,17.5c-0.7,1.2-2.3,2-3.4,2.9c-0.4-1.5-1.6-3.4-1.1-4.5c2.4-5.3,5-10.6,8.1-15.6
	C193.4,349.3,195.8,350,196.8,352.3z"/>
<path d="M464.8,144.2c0,0.6,0.2,1.4,0,1.8c-0.6,1.1-1.4,2-2.1,3c-0.8-1.1-2.5-2.2-2.4-3.1c0.5-6.1-1.8-11.3-4-16.7
	c-0.6-1.4-0.2-3.2-0.2-4.8c1.1,1,2.8,1.9,3.3,3.1c2.3,5.3,4.4,10.8,6.5,16.3C465.5,143.9,465.2,144.1,464.8,144.2z"/>
<path d="M121.6,292.9c2.6,1.6,5.3,2.7,7.3,4.6c2.3,2.1,4.3,4.6,6,7.2c0.7,1.1,0.1,2.9,0.1,4.4c-1.6-0.3-4-0.2-4.6-1.1
	c-2.9-4.8-4.8-10.5-11.7-11c-0.3,0-0.9-1.6-0.7-1.8C118.9,294.5,120,293.9,121.6,292.9z"/>
<path class="st0" d="M490.9,260.8c-0.5-0.9-1.3-1.7-1.3-2.6c-0.2-2.7,4.6-7.6,7.2-7.2c0.8,0.1,2,2.2,1.9,2.5c-1.9,2.3-4,4.4-6.1,6.6
	C492.2,260.4,491.7,260.5,490.9,260.8z"/>
<path d="M201.4,318.8c-2.6,1.3-4.6,2.4-6.6,3.4c0-1.9-0.8-4.3,0.1-5.6C197,313.4,198.7,315.9,201.4,318.8z"/>
<path d="M318.2,151.5c1.4,1.5,2.3,2.4,3.7,3.9c-2,1.2-3.6,2.3-5.3,3c-0.2,0.1-1.7-1.5-1.6-1.7C315.8,155,317,153.5,318.2,151.5z"/>
<path class="st0" d="M297.3,223.8c-1.5-3.4-4.9-6-7.7-8.7c-0.6-0.6-2.5,0.1-3.9,0.2c0,0.4-0.1,0.9-0.1,1.3c2,1.8,4,3.6,6.3,5.6
	c-2.5,1.3-4.8,1.9-6.1,3.3c-4.6,5.5-6.1,12.2-4.6,19.1c0.6,2.6,3.1,5.8,5.4,6.7c1.6,0.6,5.3-1.8,6.8-3.8
	C298.8,240.4,301,232.3,297.3,223.8z M287.5,245.8c-2.9-5.6-1.3-10.5,0.2-15.3c0.5-1.4,2.8-2.2,4.2-3.2c0.6,1.4,1.8,2.7,1.8,4.1
	C293.9,236.9,291.3,241.3,287.5,245.8z"/>
<path class="st0" d="M388.1,230.7c0-7.1-2.8-10.9-7.6-10c-4.3,0.8-8.4,2.8-9.6,7.1c-1.5,5.2-2.4,10.8-2.2,16.2
	c0.1,2.5,3.1,5.8,5.6,7.1c3.4,1.8,6.7-0.7,8.6-3.6C386.4,242.6,388.5,236.9,388.1,230.7z M375.8,246.3c-5.5-4.9-4.7-15.6,1.6-21.5
	C383.4,228.6,382.5,241.1,375.8,246.3z"/>
<path class="st1" d="M169,149.4c1-4.7,1.8-8.7,2.6-12.8c2.3,1.5,4,2.6,6.2,4C178,145.3,176,147.9,169,149.4z"/>
<path class="st1" d="M251.4,142.9c0.5,1.8,1.4,3.6,1.4,5.4c0,0.6-2.4,1.1-3.7,1.7c0-2.2,0-4.5,0-6.7
	C249.8,143.1,250.6,143,251.4,142.9z"/>
<path class="st0" d="M419.4,246.5c-5.1-7.8-8.3-13.8-4.2-23.1c0.9-2,1.1-6.6,0.7-8.7c-0.3-1.6-2-3.3-3.5-4.2
	c-0.7-0.4-2.8,0.7-3.6,1.6c-1.6,1.6-3.2,3.5-3.9,5.6c-0.9,2.7-1.9,4.6-5,5.6c-1.4,0.4-2.1,3-3.1,4.5c0.3,0.2,0.7,0.5,1,0.7
	c1-0.3,1.9-0.6,3.1-1c0,4.8,0.2,9.1-0.1,13.4c-0.2,3.4-1.1,6.1,2.2,6.5c1,0.1,1.3-2.2,2.6-4.1c0-0.1,0.9-2.4,0.6-3.8
	c-0.2-1,1.1-1.5,1.6-0.6c2.5,4.2,7.4,9.9,9.4,12.3c0.5,0.6,2.3,1,2.6,0.7c0.7-0.7,1.1-2,1.1-3C420.8,248,419.9,247.3,419.4,246.5z
	 M412.8,222.2c-0.7,2.3-2.4,1.9-3.8,1.4c-1.4-0.4-1.9-2.7-1.1-5c0.7-2.3,2.4-3.9,3.8-3.4C413,215.6,413.6,219.8,412.8,222.2z"/>
</svg>
