<?xml version="1.0" encoding="utf-8"?>
<!-- Generator: Adobe Illustrator 19.1.1, SVG Export Plug-In . SVG Version: 6.00 Build 0)  -->
<svg version="1.1" id="Lager_1" xmlns="http://www.w3.org/2000/svg" xmlns:xlink="http://www.w3.org/1999/xlink" x="0px" y="0px"
	 viewBox="0 0 76.7 76.7" style="enable-background:new 0 0 76.7 76.7;" xml:space="preserve">
<style type="text/css">
	.st0{fill:#F07F1B;}
	.st1{fill:#FFFFFF;}
	.st2{fill:none;stroke:#FFFFFF;stroke-width:2;stroke-miterlimit:10;}
</style>
<polygon class="st0" points="38.3,0 41.7,4 45.8,0.7 48.3,5.3 53,2.9 54.6,7.9 59.6,6.5 60.2,11.7 65.4,11.2 65,16.4 70.2,17 
	68.8,22.1 73.7,23.7 71.3,28.3 75.9,30.9 72.7,35 76.7,38.3 72.7,41.7 75.9,45.8 71.3,48.3 73.7,53 68.8,54.6 70.2,59.6 65,60.2 
	65.4,65.4 60.2,65 59.6,70.2 54.6,68.8 53,73.7 48.3,71.3 45.8,75.9 41.7,72.7 38.3,76.7 35,72.7 30.9,75.9 28.3,71.3 23.7,73.7 
	22.1,68.8 17,70.2 16.4,65 11.2,65.4 11.7,60.2 6.5,59.6 7.9,54.6 2.9,53 5.3,48.3 0.7,45.8 4,41.7 0,38.3 4,35 0.7,30.9 5.3,28.3 
	2.9,23.7 7.9,22.1 6.5,17 11.7,16.4 11.2,11.2 16.4,11.7 17,6.5 22.1,7.9 23.7,2.9 28.3,5.3 30.9,0.7 35,4 "/>
<g>
	<path class="st1" d="M24.1,48v5h-2.9V38.8h5.5c1.1,0,2,0.2,2.8,0.6s1.4,0.9,1.9,1.7s0.7,1.5,0.7,2.5c0,1.4-0.5,2.5-1.4,3.3
		s-2.3,1.2-4,1.2H24.1z M24.1,45.6h2.6c0.8,0,1.4-0.2,1.8-0.5s0.6-0.9,0.6-1.6c0-0.7-0.2-1.3-0.6-1.7s-1-0.7-1.7-0.7h-2.7V45.6z"/>
	<path class="st1" d="M34.1,53V38.8h4.4c1.3,0,2.4,0.3,3.4,0.8s1.8,1.4,2.3,2.4s0.8,2.2,0.8,3.5v0.7c0,1.3-0.3,2.5-0.8,3.5
		s-1.3,1.8-2.3,2.4S39.7,53,38.5,53H34.1z M37,41.1v9.5h1.4c1.1,0,2-0.4,2.6-1.1s0.9-1.8,0.9-3.2v-0.8c0-1.4-0.3-2.5-0.9-3.3
		s-1.5-1.1-2.6-1.1H37z"/>
	<path class="st1" d="M55.6,47.2H50V53h-2.9V38.8h9.3v2.4H50v3.7h5.6V47.2z"/>
</g>
<g>
	<line class="st2" x1="30.3" y1="30.3" x2="47.3" y2="30.3"/>
	<polyline class="st2" points="30.6,21 38.8,29.1 47.1,21 	"/>
	<line class="st2" x1="38.8" y1="13.6" x2="38.8" y2="29.1"/>
</g>
</svg>
